<svg id="Capa_1" enable-background="new 0 0 512 512" height="512" viewBox="0 0 512 512" width="512" xmlns="http://www.w3.org/2000/svg"><g><g><path d="m355.32 135.3c-8.284 0-15-6.716-15-15v-105.3c0-8.284 6.716-15 15-15s15 6.716 15 15v105.3c0 8.284-6.716 15-15 15z" fill="#b5dbff"/></g><g><g><path d="m164.99 186.855v123.59c0 8.28-6.71 15-15 15h-32.69c-17.81 0-32.31-14.49-32.31-32.31v-88.97c0-17.82 14.5-32.31 32.31-32.31h32.69c8.29 0 15 6.72 15 15z" fill="#4a578e"/></g><g><path d="m164.99 370.445v60c0 8.28-6.71 15-15 15h-32.69c-17.81 0-32.31-14.49-32.31-32.31v-25.38c0-17.82 14.5-32.31 32.31-32.31h32.69c8.29 0 15 6.72 15 15z" fill="#4a578e"/></g></g><g><path d="m427.01 157.93v301.44c0 29.02-23.61 52.63-52.63 52.63h-186.76c-29.02 0-52.63-23.61-52.63-52.63v-301.44c0-29.02 23.61-52.63 52.63-52.63h186.76c29.02 0 52.63 23.61 52.63 52.63z" fill="#fd3"/></g><path d="m427.01 157.93v301.44c0 29.02-23.61 52.63-52.63 52.63h-93.38v-406.7h93.38c29.02 0 52.63 23.61 52.63 52.63z" fill="#fb3"/><g><path d="m367.01 180.34v76.66c0 8.28-6.72 15-15 15h-142.02c-8.28 0-15-6.72-15-15v-76.66c0-8.28 6.72-15 15-15h142.02c8.28 0 15 6.72 15 15z" fill="#6aa9ff"/></g><g><path d="m367.01 317c0 8.28-6.72 15-15 15h-142.02c-8.28 0-15-6.72-15-15s6.72-15 15-15h142.02c8.28 0 15 6.72 15 15z" fill="#4a578e"/></g><g><path d="m352.01 392h-41.01c-8.284 0-15-6.716-15-15s6.716-15 15-15h41.01c8.284 0 15 6.716 15 15s-6.716 15-15 15z" fill="#174169"/></g><g><path d="m251 392h-41.01c-8.284 0-15-6.716-15-15s6.716-15 15-15h41.01c8.284 0 15 6.716 15 15s-6.716 15-15 15z" fill="#4a578e"/></g><g><path d="m352.01 452h-41.01c-8.284 0-15-6.716-15-15s6.716-15 15-15h41.01c8.284 0 15 6.716 15 15s-6.716 15-15 15z" fill="#174169"/></g><g><path d="m251 452h-41.01c-8.284 0-15-6.716-15-15s6.716-15 15-15h41.01c8.284 0 15 6.716 15 15s-6.716 15-15 15z" fill="#4a578e"/></g><path d="m367.01 180.34v76.66c0 8.28-6.72 15-15 15h-71.01v-106.66h71.01c8.28 0 15 6.72 15 15z" fill="#3c91f7"/><path d="m367.01 317c0 8.28-6.72 15-15 15h-71.01v-30h71.01c8.28 0 15 6.72 15 15z" fill="#174169"/></g></svg>